# AST/ASF file generated using VICON BodyLanguage
# -----------------------------------------------
:version 1.10
:name VICON
:units
  mass 1.0
  length 0.45
  angle deg
:documentation
   .ast/.asf automatically generated from VICON data using
   VICON BodyBuilder and BodyLanguage model FoxedUp or BRILLIANT.MOD
:root
   order TX TY TZ RX RY RZ
   axis XYZ
   position 0 0 0  
   orientation 0 0 0 
:bonedata
  begin
     id 1 
     name lhipjoint
     direction 0.584852 -0.759097 0.285867 
     length 2.43633 
     axis 0 0 0  XYZ
  end
  begin
     id 2 
     name lfemur
     direction 0.34202 -0.939693 0  
     length 7.14704  
     axis 0 0 20  XYZ
    dof rx ry rz
    limits (-160.0 20.0)
           (-70.0 70.0)
           (-60.0 70.0)
  end
  begin
     id 3 
     name ltibia
     direction 0.342022 -0.939692 0   
     length 7.68483   
     axis 0 0 20   XYZ
    dof rx
    limits (-10.0 170.0)
  end
  begin
     id 4 
     name lfoot
     direction 0.0999605 -0.274639 0.956337   
     length 2.40452   
     axis -90 7.62852e-016 20   XYZ
    dof rx rz
    limits (-45.0 90.0)
           (-70.0 20.0)
  end
  begin
     id 5 
     name ltoes
     direction 1.53468e-011 -4.21881e-011 1   
     length 1.19837   
     axis -90 7.62852e-016 20   XYZ
    dof rx
    limits (-90.0 20.0)
  end
  begin
     id 6 
     name rhipjoint
     direction -0.569886 -0.769002 0.289597   
     length 2.40495  
     axis 0 0 0  XYZ 
  end
  begin
     id 7 
     name rfemur
     direction -0.34202 -0.939693 0   
     length 7.45086   
     axis 0 0 -20   XYZ
    dof rx ry rz
    limits (-160.0 20.0)
           (-70.0 70.0)
           (-70.0 60.0)
  end
  begin
     id 8 
     name rtibia
     direction -0.34202 -0.939693 0   
     length 7.76831   
     axis 0 0 -20   XYZ
    dof rx
    limits (-10.0 170.0)
 end
 begin
     id 9 
     name rfoot
     direction -0.0798572 -0.219406 0.97236   
     length 2.35911  
     axis -90 -7.62852e-016 -20   XYZ
    dof rx rz
    limits (-45.0 90.0)
           (-20.0 70.0)
  end
  begin
     id 10 
     name rtoes
     direction -1.53469e-011 -4.21728e-011 1   
     length 1.18261   
     axis -90 -7.62852e-016 -20   XYZ
    dof rx
    limits (-90.0 20.0)
  end
  begin
     id 11 
     name lowerback
     direction 0.0242088 0.999437 0.0232389   
     length 2.1561   
     axis 0 0 0   XYZ
    dof rx ry rz
    limits (-20.0 45.0)
           (-30.0 30.0)
           (-30.0 30.0)
  end
  begin
     id 12 
     name upperback
     direction -0.0356893 0.999013 -0.0264323   
     length 2.14431   
     axis 0 0 0   XYZ
    dof rx ry rz
    limits (-20.0 45.0)
           (-30.0 30.0)
           (-30.0 30.0)
  end
  begin
     id 13 
     name thorax
     direction -0.0472163 0.998194 -0.0371284   
     length 2.16169   
     axis 0 0 0   XYZ
    dof rx ry rz
    limits (-20.0 45.0)
           (-30.0 30.0)
           (-30.0 30.0)
  end
  begin
     id 14 
     name lowerneck
     direction 0.00863244 0.999921 0.00911972   
     length 1.58651   
     axis 0 0 0   XYZ
    dof rx ry rz
    limits (-20.0 45.0)
           (-30.0 30.0)
           (-30.0 30.0)
  end
  begin
     id 15 
     name upperneck
     direction 0.149523 0.979068 -0.138086   
     length 1.57486   
     axis 0 0 0   XYZ
    dof rx ry rz
    limits (-20.0 45.0)
           (-30.0 30.0)
           (-30.0 30.0)
  end
  begin
     id 16
     name head
     direction 0.0445219 0.997708 -0.0509576  
     length 1.6019  
     axis 0 0 0   XYZ
    dof rx ry rz
    limits (-20.0 45.0)
           (-30.0 30.0)
           (-30.0 30.0)
  end
  begin
     id 17 
     name lclavicle
     direction 0.911271 0.381667 -0.154644  
     length 3.80848  
     axis 0 0 0   XYZ
    dof ry rz
    limits (-20.0 10.0)
           (0.0 20.0)
  end
  begin
     id 18 
     name lhumerus
     direction 1 -4.49003e-011 2.1308e-027   
     length 5.19069   
     axis 180 -30 -90   XYZ
    dof rx ry rz
    limits (-60.0 90.0)
           (-90.0 90.0)
           (-90.0 90.0)
  end
  begin
     id 19
     name lradius
     direction 1 -4.48914e-011 4.01554e-027   
     length 3.30016   
     axis 180 -30 -90   XYZ
    dof rx
    limits (-10.0 170.0)
  end
  begin
     id 20
     name lwrist
     direction 1 -4.49003e-011 1.1934e-026   
     length 1.65008   
     axis -8.46377e-015 90 90   XYZ
    dof ry
    limits (-180.0 0.0)
 end
  begin
     id 21 
     name lhand
     direction 1 -4.49034e-011 2.38659e-026   
     length 0.707698   
     axis -1.52313e-014 90 90   XYZ
    dof rx rz
    limits (-90.0 90.0)
           (-45.0 45.0)
  end
  begin
     id 22 
     name lfingers
     direction 1 -4.48691e-011 4.77775e-026   
     length 0.570564   
     axis -3.04623e-014 90 90   XYZ
    dof rx
    limits (0.0 90.0)
  end
  begin
     id 23
     name lthumb
     direction 0.707107 -6.34832e-011 0.707107   
     length 0.819219   
     axis -90 45 -1.62303e-014   XYZ
    dof rx rz
    limits (-45.0 45.0)
           (-45.0 45.0)
  end
  begin
     id 24 
     name rclavicle
     direction -0.815579 0.573708 -0.0754329   
     length 3.54371  
     axis 0 0 0   XYZ 
    dof ry rz
    limits (-10.0 20.0)
           (-20.0 0.0)
  end
  begin
     id 25 
     name rhumerus
     direction -1 -4.48956e-011 3.05351e-028  
     length 5.23924   
     axis 180 30 90   XYZ
    dof rx ry rz
    limits (-90.0 60.0)
           (-90.0 90.0)
           (-90.0 90.0)
  end
  begin
     id 26 
     name rradius
     direction -1 -4.49013e-011 3.53849e-027   
     length 3.32953   
     axis 180 30 90   XYZ
    dof rx
    limits (-10.0 170.0)
  end
  begin
     id 27 
     name rwrist
     direction -1 -4.48901e-011 1.19374e-026   
     length 1.66477   
     axis -8.46377e-015 -90 -90   XYZ
    dof ry
    limits (-180.0 0.0)
  end
  begin
     id 28
     name rhand
     direction -1 -4.48877e-011 2.38764e-026   
     length 0.607414   
     axis -1.52313e-014 -90 -90   XYZ
    dof rx rz
    limits (-90.0 90.0)
           (-45.0 45.0)
  end
  begin
     id 29
     name rfingers
     direction -1 -4.48882e-011 4.77521e-026   
     length 0.489712   
     axis -3.04623e-014 -90 -90   XYZ
    dof rx
    limits (0.0 90.0)
  end
  begin
     id 30
     name rthumb
     direction -0.707107 -6.34974e-011 0.707107   
     length 0.703132   
     axis -90 -45 1.62303e-014   XYZ
    dof rx rz
    limits (-45.0 45.0)
           (-45.0 45.0)
  end
:hierarchy
  begin
    root lhipjoint rhipjoint lowerback
    lhipjoint lfemur
    lfemur ltibia
    ltibia lfoot
    lfoot ltoes
    rhipjoint rfemur
    rfemur rtibia
    rtibia rfoot
    rfoot rtoes
    lowerback upperback
    upperback thorax
    thorax lowerneck lclavicle rclavicle
    lowerneck upperneck
    upperneck head
    lclavicle lhumerus
    lhumerus lradius
    lradius lwrist
    lwrist lhand lthumb
    lhand lfingers
    rclavicle rhumerus
    rhumerus rradius
    rradius rwrist
    rwrist rhand rthumb
    rhand rfingers
  end

#!OML:ASF E:\VariousWalksJay\Project 1\Capture day 1\Session 1\Actor2.ASF
:FULLY-SPECIFIED
:DEGREES
129
root 16.1328 17.6056 -27.123 3.80843 -26.8012 -4.14787
lowerback -4.00007 -0.448497 4.01601
upperback 3.81956 -0.813327 -1.29392
thorax 6.1561 -0.195032 -3.68318
lowerneck -12.5559 -4.09286 -4.28353
upperneck 14.3393 -6.68127 11.0257
head 6.98143 -2.56304 3.61237
rclavicle 4.48259e-014 -4.77083e-015
rhumerus -31.4457 -3.04978 -86.5831
rradius 29.289
rwrist 3.3755
rhand -10.0941 -6.10031
rfingers 7.12502
rthumb 15.893 -35.4681
lclavicle 4.48259e-014 -4.77083e-015
lhumerus -24.3967 -3.03273 83.8346
lradius 21.1358
lwrist 0.105519
lhand -9.42494 -6.90155
lfingers 7.12502
lthumb 16.5374 22.4137
rfemur -11.8856 -4.58003 23.6243
rtibia 33.7981
rfoot -23.9456 -11.632
rtoes -0.379597
lfemur -7.2604 5.07297 -15.7357
ltibia 27.8336
lfoot -21.1886 5.09901
ltoes -6.76493
130
root 16.127 17.6069 -27.1341 3.83003 -26.4807 -4.10497
lowerback -3.96283 -0.422907 4.08733
upperback 3.84198 -0.782213 -1.30494
thorax 6.16092 -0.175688 -3.73191
lowerneck -12.6825 -3.87863 -4.09154
upperneck 14.3888 -6.39145 10.8401
head 6.98288 -2.42235 3.54938
rclavicle 6.12257e-014 -7.95139e-016
rhumerus -31.4262 -3.14125 -86.6089
rradius 29.1755
rwrist 3.47004
rhand -9.94135 -6.09991
rfingers 7.12502
rthumb 16.0401 -35.4559
lclavicle 6.12257e-014 -7.95139e-016
lhumerus -24.3995 -3.17054 83.9111
lradius 21.4203
lwrist 0.397506
lhand -9.69737 -7.13005
lfingers 7.12502
lthumb 16.2751 22.2069
rfemur -11.9232 -4.71143 23.643
rtibia 33.7686
rfoot -23.9788 -11.6871
rtoes -0.141561
lfemur -7.4542 5.02619 -15.7124
ltibia 27.9295
lfoot -21.1027 4.87897
ltoes -6.83771
131
root 16.1211 17.6082 -27.1456 3.85796 -26.1488 -4.05998
lowerback -3.93181 -0.395387 4.16018
upperback 3.8659 -0.748924 -1.3146
thorax 6.17123 -0.15504 -3.78003
lowerneck -12.7879 -3.68662 -3.91624
upperneck 14.4083 -6.12855 10.6641
head 6.97508 -2.29637 3.48941
rclavicle -6.98728e-014 1.51076e-014
rhumerus -31.3974 -3.23292 -86.6309
rradius 29.0607
rwrist 3.56197
rhand -9.77001 -6.08999
rfingers 7.12502
rthumb 16.2051 -35.4327
lclavicle -6.98728e-014 1.51076e-014
lhumerus -24.4056 -3.32231 83.9941
lradius 21.7303
lwrist 0.719271
lhand -9.84343 -7.27903
lfingers 7.12502
lthumb 16.1344 22.0694
rfemur -11.9678 -4.84947 23.6615
rtibia 33.7367
rfoot -24.0138 -11.7379
rtoes 0.116519
lfemur -7.66686 4.98187 -15.6909
ltibia 28.0381
lfoot -21.0148 4.65422
ltoes -6.92382
132
root 16.1153 17.6095 -27.1575 3.88897 -25.8088 -4.01478
lowerback -3.88471 -0.36306 4.22577
upperback 3.88039 -0.708332 -1.31477
thorax 6.16321 -0.131963 -3.81306
lowerneck -12.8882 -3.51998 -3.76308
upperneck 14.4221 -5.89793 10.4977
head 6.96899 -2.18672 3.43286
rclavicle 7.14631e-014 6.36111e-015
rhumerus -31.3834 -3.30346 -86.6407
rradius 28.9547
rwrist 3.63925
rhand -9.59537 -6.07248
rfingers 7.12502
rthumb 16.3733 -35.4014
lclavicle 7.14631e-014 6.36111e-015
lhumerus -24.4299 -3.48057 84.0968
lradius 22.0566
lwrist 1.05895
lhand -9.75735 -7.24998
lfingers 7.12502
lthumb 16.2173 22.0917
rfemur -12.0156 -4.99351 23.68
rtibia 33.7039
rfoot -24.0516 -11.783
rtoes 0.396277
lfemur -7.89354 4.93591 -15.6708
ltibia 28.1606
lfoot -20.9285 4.43281
ltoes -7.02096
133
root 16.1096 17.6107 -27.169 3.91833 -25.4678 -3.96708
lowerback -3.8289 -0.326214 4.28696
upperback 3.88861 -0.661219 -1.3079
thorax 6.14432 -0.106423 -3.83545
lowerneck -12.9679 -3.38432 -3.615
upperneck 14.4211 -5.7063 10.3207
head 6.95803 -2.09806 3.36962
rclavicle 3.08116e-015 1.19271e-014
rhumerus -31.3788 -3.35018 -86.6428
rradius 28.8484
rwrist 3.72163
rhand -9.42422 -6.0312
rfingers 7.12502
rthumb 16.538 -35.3464
lclavicle 3.08116e-015 1.19271e-014
lhumerus -24.4681 -3.63214 84.213
lradius 22.3863
lwrist 1.41337
lhand -9.67797 -7.24461
lfingers 7.12502
lthumb 16.2937 22.0908
rfemur -12.0628 -5.14447 23.6935
rtibia 33.6724
rfoot -24.0921 -11.8186
rtoes 0.690562
lfemur -8.12762 4.88263 -15.658
ltibia 28.299
lfoot -20.8497 4.22826
ltoes -7.12167
134
root 16.1041 17.6117 -27.1804 3.94599 -25.1141 -3.91637
lowerback -3.76242 -0.291747 4.3387
upperback 3.88723 -0.616508 -1.29038
thorax 6.10903 -0.0833629 -3.8413
lowerneck -13.0077 -3.27847 -3.48602
upperneck 14.3988 -5.54998 10.1399
head 6.93685 -2.02959 3.30477
rclavicle 4.04527e-014 -2.38542e-015
rhumerus -31.3893 -3.35118 -86.6386
rradius 28.7471
rwrist 3.80004
rhand -9.2627 -5.98152
rfingers 7.12502
rthumb 16.6936 -35.2837
lclavicle 4.04527e-014 -2.38542e-015
lhumerus -24.5267 -3.75544 84.342
lradius 22.7089
lwrist 1.76351
lhand -9.61473 -7.26596
lfingers 7.12502
lthumb 16.3546 22.0645
rfemur -12.1103 -5.30602 23.7033
rtibia 33.6444
rfoot -24.1405 -11.8513
rtoes 1.00391
lfemur -8.37476 4.8163 -15.6511
ltibia 28.4579
lfoot -20.7766 4.03537
ltoes -7.21802
135
root 16.0986 17.6124 -27.1922 3.97264 -24.7348 -3.86689
lowerback -3.68767 -0.261586 4.38874
upperback 3.88568 -0.577291 -1.26736
thorax 6.06835 -0.06339 -3.84085
lowerneck -13.0512 -3.1981 -3.37211
upperneck 14.3749 -5.42782 9.97033
head 6.91951 -1.9774 3.2425
rclavicle 4.27387e-014 1.74931e-014
rhumerus -31.3993 -3.30837 -86.642
rradius 28.6567
rwrist 3.87537
rhand -9.12249 -5.94923
rfingers 7.12502
rthumb 16.8285 -35.24
lclavicle 4.27387e-014 1.74931e-014
lhumerus -24.5839 -3.86655 84.474
lradius 23.0184
lwrist 2.11446
lhand -9.58089 -7.30481
lfingers 7.12502
lthumb 16.3872 22.0229
rfemur -12.1592 -5.48364 23.7167
rtibia 33.6218
rfoot -24.1974 -11.8918
rtoes 1.32328
lfemur -8.64181 4.74197 -15.6436
ltibia 28.6434
lfoot -20.7049 3.84421
ltoes -7.33234
136
root 16.0933 17.6128 -27.2049 4.00854 -24.3565 -3.81701
lowerback -3.60395 -0.227532 4.43001
upperback 3.87577 -0.531926 -1.23859
thorax 6.01433 -0.0414141 -3.82876
lowerneck -13.0699 -3.145 -3.28802
upperneck 14.3387 -5.34015 9.82104
head 6.89808 -1.94282 3.18837
rclavicle 3.00165e-014 -1.59028e-015
rhumerus -31.4097 -3.23522 -86.6443
rradius 28.5693
rwrist 3.96336
rhand -8.98748 -5.91222
rfingers 7.12502
rthumb 16.9585 -35.1919
lclavicle 3.00165e-014 -1.59028e-015
lhumerus -24.645 -3.95277 84.6075
lradius 23.3069
lwrist 2.44867
lhand -9.56433 -7.3568
lfingers 7.12502
lthumb 16.4032 21.9696
rfemur -12.2266 -5.66257 23.7312
rtibia 33.6071
rfoot -24.2517 -11.9353
rtoes 1.62144
lfemur -8.94182 4.67567 -15.6413
ltibia 28.8626
lfoot -20.6363 3.66936
ltoes -7.47116
137
root 16.0882 17.6129 -27.2189 4.05502 -23.9649 -3.77025
lowerback -3.51379 -0.19493 4.46689
upperback 3.86289 -0.487987 -1.20554
thorax 5.95337 -0.020684 -3.80985
lowerneck -13.0868 -3.11652 -3.21861
upperneck 14.2961 -5.2854 9.68521
head 6.87759 -1.924 3.13765
rclavicle -5.4467e-014 7.95139e-015
rhumerus -31.4103 -3.13365 -86.6498
rradius 28.4908
rwrist 4.05648
rhand -8.85206 -5.8893
rfingers 7.12502
rthumb 17.0888 -35.1577
lclavicle -5.4467e-014 7.95139e-015
lhumerus -24.7002 -4.02351 84.7368
lradius 23.5724
lwrist 2.77306
lhand -9.55388 -7.39592
lfingers 7.12502
lthumb 16.4132 21.9297
rfemur -12.3138 -5.85114 23.7533
rtibia 33.6021
rfoot -24.3077 -11.9844
rtoes 1.9142
lfemur -9.28342 4.61496 -15.6385
ltibia 29.1224
lfoot -20.566 3.50237
ltoes -7.63725
138
root 16.0832 17.6126 -27.2342 4.1114 -23.5685 -3.72686
lowerback -3.41536 -0.161296 4.50158
upperback 3.84932 -0.442126 -1.17063
thorax 5.88714 0.000700732 -3.78762
lowerneck -13.1023 -3.11161 -3.16673
upperneck 14.2441 -5.26248 9.57003
head 6.85719 -1.92002 3.09326
rclavicle -1.23246e-014 1.11319e-014
rhumerus -31.3934 -3.01633 -86.6566
rradius 28.4208
rwrist 4.15342
rhand -8.70602 -5.88476
rfingers 7.12502
rthumb 17.2294 -35.141
lclavicle -1.23246e-014 1.11319e-014
lhumerus -24.7454 -4.08136 84.8585
lradius 23.812
lwrist 3.08503
lhand -9.57175 -7.42926
lfingers 7.12502
lthumb 16.396 21.8978
rfemur -12.4218 -6.03522 23.783
rtibia 33.6085
rfoot -24.3631 -12.0488
rtoes 2.1845
lfemur -9.66675 4.56027 -15.6375
ltibia 29.4269
lfoot -20.4935 3.35176
ltoes -7.82361
139
root 16.0787 17.6118 -27.2506 4.17718 -23.1786 -3.69042
lowerback -3.31938 -0.134658 4.5388
upperback 3.83065 -0.406021 -1.12882
thorax 5.81601 0.0169786 -3.76052
lowerneck -13.0887 -3.11414 -3.14168
upperneck 14.1785 -5.24654 9.47136
head 6.82902 -1.92069 3.0582
rclavicle -8.94531e-015 9.54166e-015
rhumerus -31.3717 -2.84271 -86.666
rradius 28.3636
rwrist 4.24033
rhand -8.53441 -5.88776
rfingers 7.12502
rthumb 17.3946 -35.1294
lclavicle -8.94531e-015 9.54166e-015
lhumerus -24.8031 -4.08718 84.9676
lradius 24.026
lwrist 3.3735
lhand -9.60169 -7.445
lfingers 7.12502
lthumb 16.3672 21.8844
rfemur -12.5487 -6.22398 23.8205
rtibia 33.6258
rfoot -24.4117 -12.111
rtoes 2.41987
lfemur -10.0882 4.51904 -15.6376
ltibia 29.7786
lfoot -20.4213 3.22642
ltoes -8.04712
140
root 16.0747 17.6104 -27.2674 4.24533 -22.8043 -3.66228
lowerback -3.21929 -0.106641 4.58373
upperback 3.81454 -0.368425 -1.08397
thorax 5.74543 0.0343042 -3.7346
lowerneck -13.0717 -3.12843 -3.13265
upperneck 14.1053 -5.24584 9.3887
head 6.79973 -1.92852 3.02946
rclavicle 3.57812e-015 1.27222e-014
rhumerus -31.3343 -2.6438 -86.671
rradius 28.321
rwrist 4.32258
rhand -8.32395 -5.9042
rfingers 7.12502
rthumb 17.5971 -35.1278
lclavicle 3.57812e-015 1.27222e-014
lhumerus -24.8607 -4.07367 85.0672
lradius 24.2146
lwrist 3.64312
lhand -9.66621 -7.41689
lfingers 7.12502
lthumb 16.3051 21.9176
rfemur -12.6844 -6.41316 23.8641
rtibia 33.6534
rfoot -24.4519 -12.1685
rtoes 2.61514
lfemur -10.536 4.48662 -15.6396
ltibia 30.1762
lfoot -20.352 3.1326
ltoes -8.25224
141
root 16.0712 17.6084 -27.2841 4.31138 -22.4536 -3.64612
lowerback -3.11672 -0.0760783 4.64181
upperback 3.8026 -0.328169 -1.03614
thorax 5.6782 0.0535837 -3.71294
lowerneck -13.0583 -3.14992 -3.13044
upperneck 14.0304 -5.25542 9.31623
head 6.77174 -1.94076 3.00412
rclavicle -2.80286e-014 1.43125e-014
rhumerus -31.2819 -2.41903 -86.671
rradius 28.2926
rwrist 4.3964
rhand -8.06876 -5.92324
rfingers 7.12502
rthumb 17.8427 -35.1247
lclavicle -2.80286e-014 1.43125e-014
lhumerus -24.9319 -4.04985 85.1571
lradius 24.3928
lwrist 3.88447
lhand -9.76709 -7.35025
lfingers 7.12502
lthumb 16.2079 21.9922
rfemur -12.8198 -6.58888 23.9157
rtibia 33.6893
rfoot -24.4886 -12.2241
rtoes 2.78481
lfemur -10.9973 4.47137 -15.6407
ltibia 30.6151
lfoot -20.2906 3.0728
ltoes -8.44929
142
root 16.0682 17.6058 -27.3007 4.36944 -22.1244 -3.64371
lowerback -3.00614 -0.0442079 4.71291
upperback 3.79779 -0.286689 -0.984589
thorax 5.61416 0.0741144 -3.69478
lowerneck -13.0157 -3.17944 -3.15181
upperneck 13.9333 -5.27363 9.2657
head 6.7334 -1.95797 2.9891
rclavicle 2.84262e-014 3.97569e-015
rhumerus -31.213 -2.15947 -86.6687
rradius 28.2841
rwrist 4.45371
rhand -7.7697 -5.94882
rfingers 7.12502
rthumb 18.1304 -35.1238
lclavicle 2.84262e-014 3.97569e-015
lhumerus -25.015 -4.03612 85.2403
lradius 24.5583
lwrist 4.09835
lhand -9.89976 -7.24791
lfingers 7.12502
lthumb 16.0802 22.1049
rfemur -12.9458 -6.75521 23.9765
rtibia 33.731
rfoot -24.5211 -12.2752
rtoes 2.93152
lfemur -11.4615 4.47685 -15.6375
ltibia 31.0885
lfoot -20.2377 3.03875
ltoes -8.60277
